<svg width="283" height="39" viewBox="0 0 283 39" fill="none" xmlns="http://www.w3.org/2000/svg">
<path d="M22.664 30.48C22.728 31.44 22.76 32.176 22.76 32.688C22.76 34.224 22.568 35.76 22.184 37.296C20.776 37.296 18.664 37.328 15.848 37.392L9.608 37.44C6.76 37.44 4.104 37.344 1.64 37.152V36.24L0.68 36.192C0.68 34.528 0.664 32.592 0.632 30.384C0.6 28.176 0.568 26.496 0.536 25.344C0.44 21.888 0.392 18.416 0.392 14.928C0.392 10.896 0.52 6.736 0.776 2.448C3.272 2.32 6.152 2.224 9.416 2.16C12.712 2.064 15.432 2.016 17.576 2.016C20.104 2.016 21.432 2.208 21.56 2.592C21.56 2.816 21.608 2.992 21.704 3.12C21.832 3.216 21.992 3.296 22.184 3.36C22.376 3.424 22.488 3.488 22.52 3.552V3.504C22.648 4.24 22.712 5.088 22.712 6.048C22.712 6.56 22.68 7.328 22.616 8.352C22.552 9.44 22.52 10.272 22.52 10.848C20.888 11.232 18.824 11.424 16.328 11.424H14.6L12.728 11.376C11.736 11.376 10.744 11.424 9.752 11.52C9.752 12 9.72 12.624 9.656 13.392L9.608 14.976V15.408L10.472 15.456L12.344 15.408C12.504 15.408 13.304 15.456 14.744 15.552C14.776 15.648 14.808 15.808 14.84 16.032C14.872 16.224 14.936 16.352 15.032 16.416C15.16 16.48 15.384 16.512 15.704 16.512C15.864 17.344 15.944 18.32 15.944 19.44C15.944 20.432 15.928 21.184 15.896 21.696L15.848 24C14.888 24.256 13.656 24.384 12.152 24.384C10.968 24.384 10.248 24.416 9.992 24.48C9.896 24.96 9.848 25.696 9.848 26.688C9.848 27.648 9.864 28.336 9.896 28.752C13.736 28.944 16.776 29.04 19.016 29.04C19.784 29.04 20.68 29.008 21.704 28.944V29.52L21.752 29.952C22.136 29.952 22.44 29.936 22.664 29.904V30.48ZM21.224 29.472C20.744 29.504 20.056 29.52 19.16 29.52C18.36 29.52 17.432 29.504 16.376 29.472C15.32 29.44 14.504 29.408 13.928 29.376C12.2 29.28 10.44 29.232 8.648 29.232L8.6 29.184C8.472 28.384 8.408 27.232 8.408 25.728C8.408 24.704 8.472 23.856 8.6 23.184C8.728 23.088 9.016 23.024 9.464 22.992C9.912 22.96 10.408 22.944 10.952 22.944C12.616 22.944 13.768 22.848 14.408 22.656L14.456 18.48C14.456 17.36 14.408 16.528 14.312 15.984V15.936C13.448 15.936 12.792 15.92 12.344 15.888C10.584 15.888 9.272 15.856 8.408 15.792L8.36 15.744C8.232 15.264 8.168 14.656 8.168 13.92C8.168 13.472 8.2 12.832 8.264 12L8.312 10.128L8.504 10.08C9.08 10.016 9.704 9.984 10.376 9.984C11.048 9.984 11.496 9.984 11.72 9.984H15.512C17.848 9.984 19.704 9.824 21.08 9.504V9.456L21.128 7.2C21.192 6.176 21.224 5.408 21.224 4.896C21.224 4.16 21.176 3.408 21.08 2.64C21.08 2.544 19.912 2.496 17.576 2.496C12.584 2.496 7.128 2.64 1.208 2.928C1.016 6.032 0.92 9.872 0.92 14.448C0.92 16.816 0.952 20.336 1.016 25.008C1.112 28.56 1.16 32.144 1.16 35.76C3.048 35.92 5.368 36 8.12 36C9.496 36 11.624 35.968 14.504 35.904L20.84 35.856C21.16 34.608 21.32 33.248 21.32 31.776C21.32 31.264 21.288 30.528 21.224 29.568V29.472ZM43.3378 6.336C43.3378 9.248 43.4018 13.488 43.5298 19.056C43.5618 20.432 43.5938 22.128 43.6258 24.144C43.6578 26.16 43.6738 28.48 43.6738 31.104C43.6738 34.048 43.6578 36.144 43.6258 37.392L40.7458 37.44C40.1058 37.472 39.1618 37.488 37.9138 37.488C37.3378 37.488 36.8898 37.424 36.5698 37.296C36.2818 37.168 36.1378 36.912 36.1378 36.528V36.432L35.5138 36.384L35.4178 36.288C34.5858 36.992 33.5458 37.344 32.2978 37.344C30.8898 37.344 29.6418 37.088 28.5538 36.576C27.4978 36.064 26.6178 35.392 25.9138 34.56C23.3858 32.544 22.1218 28.464 22.1218 22.32C22.1218 19.856 22.4738 17.68 23.1777 15.792C23.8818 13.904 24.9378 12.688 26.3458 12.144C27.5298 11.664 29.0178 11.424 30.8098 11.424C32.7298 11.424 34.2018 11.696 35.2258 12.24L35.1298 7.344C35.1298 6.608 35.1618 5.728 35.2258 4.704L35.3698 2.784V2.256C35.3698 2.096 35.7538 1.936 36.5218 1.776C37.3218 1.616 38.1858 1.536 39.1138 1.536C40.3618 1.536 41.4498 1.632 42.3778 1.824V2.64L43.3378 2.784V6.336ZM42.1858 35.952C42.2178 34.832 42.2338 33.088 42.2338 30.72C42.2338 28.128 42.2178 25.824 42.1858 23.808C42.1538 21.76 42.1218 20.032 42.0898 18.624C41.9618 12.864 41.8978 8.448 41.8978 5.376V2.208C41.2258 2.08 40.2978 2.016 39.1138 2.016C38.3138 2.016 37.5618 2.048 36.8578 2.112C36.1858 2.144 35.8498 2.192 35.8498 2.256V2.784L35.7538 4.464C35.6898 5.072 35.6578 6.032 35.6578 7.344V9.552C35.6578 10.992 35.6738 12.208 35.7057 13.2C35.5778 12.848 35.0338 12.544 34.0738 12.288C33.1138 12.032 32.0098 11.904 30.7618 11.904C29.3218 11.904 27.8978 12.128 26.4898 12.576C25.1458 13.056 24.1538 14.192 23.5138 15.984C22.9058 17.776 22.6018 19.888 22.6018 22.32C22.6658 25.072 22.8898 27.392 23.2738 29.28C23.6898 31.168 24.5378 32.752 25.8178 34.032C27.1298 35.28 29.0498 35.904 31.5778 35.904C33.2098 35.904 34.3938 35.2 35.1298 33.792C35.1618 33.664 35.2258 33.6 35.3218 33.6C35.4498 33.6 35.5618 33.968 35.6578 34.704C35.7538 35.44 35.7698 35.84 35.7057 35.904C36.4418 36 37.2578 36.048 38.1538 36.048L40.2658 36C40.7138 35.968 41.3538 35.952 42.1858 35.952ZM32.9698 17.472C33.9298 17.472 34.6018 17.6 34.9858 17.856C35.3698 18.08 35.6098 18.544 35.7057 19.248C35.8338 19.952 35.8978 21.2 35.8978 22.992C35.8978 24.592 35.8178 25.872 35.6578 26.832C35.5298 27.792 35.2098 28.56 34.6978 29.136C34.2178 29.68 33.4658 29.952 32.4418 29.952C31.1298 29.952 30.0738 29.328 29.2738 28.08C28.4738 26.832 28.0738 25.36 28.0738 23.664C28.0738 22.416 28.1858 21.488 28.4098 20.88C28.7618 18.608 30.2818 17.472 32.9698 17.472ZM35.4178 21.168C35.4178 20.304 35.3218 19.712 35.1298 19.392C34.9698 19.072 34.5698 18.912 33.9297 18.912C31.4978 18.912 30.1378 19.904 29.8498 21.888L29.8018 21.984C29.6098 22.432 29.5138 23.104 29.5138 24C29.5138 27.648 30.4898 29.472 32.4418 29.472C33.3378 29.472 33.9938 29.216 34.4098 28.704C34.8578 28.16 35.1298 27.456 35.2258 26.592C35.3538 25.696 35.4178 24.496 35.4178 22.992V21.168ZM52.5005 2.016H53.4605L53.5085 4.608C53.5725 6.464 53.6045 7.856 53.6045 8.784C53.2525 9.328 52.4845 9.6 51.3005 9.6C51.0125 9.6 50.3885 9.568 49.4285 9.504H49.4765L47.8445 9.456C47.2045 9.456 46.6445 9.472 46.1645 9.504V8.496L45.2045 8.544C45.2045 7.936 45.1725 7.024 45.1085 5.808C45.0445 4.336 45.0125 3.04 45.0125 1.92V0.912L52.5005 1.056V2.016ZM45.4925 2.16C45.4925 3.152 45.5245 4.32 45.5885 5.664C45.6525 6.752 45.6845 7.536 45.6845 8.016H46.5005C46.9805 8.016 47.6685 8.048 48.5645 8.112L50.2925 8.16C51.3485 8.16 51.9725 8 52.1645 7.68C52.1645 6.656 52.1325 5.248 52.0685 3.456C52.0365 2.88 52.0205 2.24 52.0205 1.536L45.4925 1.392V2.16ZM52.6925 12.432L53.6525 12.576C53.6525 14.4 53.6205 17.168 53.5565 20.88C53.4605 23.664 53.4125 26.512 53.4125 29.424C53.4125 32.272 53.4765 34.736 53.6045 36.816C53.3485 37.072 52.9965 37.248 52.5485 37.344C52.1005 37.44 51.5245 37.488 50.8205 37.488C49.8925 37.488 49.1885 37.472 48.7085 37.44H48.7565L47.6045 37.392C46.9005 37.392 46.3085 37.472 45.8285 37.632C45.8285 37.408 45.8605 37.008 45.9245 36.432C45.4445 36.496 45.0925 36.576 44.8685 36.672C45.0285 34.528 45.1085 32.32 45.1085 30.048C45.1085 28.768 45.0765 26.848 45.0125 24.288C44.9485 21.728 44.9165 19.776 44.9165 18.432C44.9165 16.192 45.0285 13.84 45.2525 11.376C45.4765 11.376 45.6365 11.36 45.7325 11.328L46.5005 11.232C46.7565 11.232 47.2365 11.264 47.9405 11.328C48.6765 11.36 49.4605 11.376 50.2925 11.376H51.3965L52.6925 11.616V12.432ZM50.2925 11.856C49.2365 11.856 48.2285 11.824 47.2685 11.76L45.8765 11.712H45.6845V11.76C45.4925 13.456 45.3965 15.648 45.3965 18.336C45.3965 19.552 45.4285 21.472 45.4925 24.096C45.5565 26.72 45.5885 28.72 45.5885 30.096C45.5885 32.272 45.5245 34.24 45.3965 36C45.4605 35.968 45.7165 35.952 46.1645 35.952C46.8365 35.952 47.3805 35.968 47.7965 36L49.9565 36.048C50.6605 36.048 51.1725 36.032 51.4925 36C51.8445 35.968 52.0685 35.872 52.1645 35.712C52.0365 33.44 51.9725 30.864 51.9725 27.984C51.9725 24.848 52.0205 21.744 52.1165 18.672C52.1805 15.664 52.2125 13.44 52.2125 12V11.856H50.2925ZM62.63 1.728H63.59C63.59 3.2 63.558 6.592 63.494 11.904C63.462 13.472 63.43 15.536 63.398 18.096C63.366 20.656 63.35 23.648 63.35 27.072C63.35 31.488 63.414 34.736 63.542 36.816C63.286 37.072 62.934 37.248 62.486 37.344C62.038 37.44 61.462 37.488 60.758 37.488C59.83 37.488 59.126 37.472 58.646 37.44H58.694L57.542 37.392C56.838 37.392 56.246 37.472 55.766 37.632L55.814 36.48C55.43 36.48 55.094 36.544 54.806 36.672C55.03 33.536 55.142 30.64 55.142 27.984C55.142 26.032 55.078 23.04 54.95 19.008C54.822 15.04 54.758 12.016 54.758 9.936C54.758 6.576 54.902 3.472 55.19 0.623998L62.63 0.767999V1.728ZM55.622 1.104C55.334 4.176 55.19 7.232 55.19 10.272C55.19 13.024 55.27 16.048 55.43 19.344C55.558 23.376 55.622 26.368 55.622 28.32C55.622 30.88 55.526 33.44 55.334 36C55.398 35.968 55.654 35.952 56.102 35.952C56.774 35.952 57.318 35.968 57.734 36L59.894 36.048C60.598 36.048 61.11 36.032 61.43 36C61.782 35.968 62.006 35.872 62.102 35.712C62.006 34.144 61.958 30.928 61.958 26.064C61.958 22.384 61.99 17.344 62.054 10.944L62.15 1.248L55.622 1.104ZM85.6246 20.832C84.5046 21.024 83.2726 21.12 81.9286 21.12C80.8086 21.12 79.5286 20.992 78.0886 20.736L78.1366 20.352C78.1366 20.16 78.0566 20.032 77.8966 19.968C77.7366 19.872 77.5766 19.824 77.4166 19.824C77.2566 19.792 77.1606 19.776 77.1286 19.776L77.1766 19.392C77.1766 18.88 77.0166 18.528 76.6966 18.336C76.3766 18.112 75.9606 17.952 75.4486 17.856C74.8726 18.016 74.4246 18.256 74.1046 18.576C73.7846 18.896 73.6246 19.248 73.6246 19.632C73.6246 20.24 73.9446 20.672 74.5846 20.928L74.4886 20.88C78.0726 21.456 80.8406 22.384 82.7926 23.664C84.7446 24.944 85.7206 26.976 85.7206 29.76C85.7206 32.704 84.7606 34.848 82.8406 36.192C80.9206 37.536 78.3926 38.208 75.2566 38.208C73.0166 38.208 71.0166 37.776 69.2566 36.912C67.4966 36.08 66.1206 34.944 65.1286 33.504C64.1686 32.032 63.6886 30.432 63.6886 28.704V28.032C64.6806 27.904 65.7686 27.84 66.9526 27.84L69.4486 27.888C69.9606 27.92 70.7126 27.936 71.7046 27.936C71.7046 28.192 71.7846 28.512 71.9446 28.896H72.6646C72.6646 30.016 73.3846 30.576 74.8246 30.576C76.1366 30.576 76.7926 29.936 76.7926 28.656C76.7926 28.176 76.5366 27.84 76.0246 27.648C75.5446 27.424 74.7606 27.2 73.6726 26.976C72.2966 26.72 71.2406 26.432 70.5046 26.112H70.5526C68.6006 25.44 67.0486 24.352 65.8966 22.848C64.7446 21.312 64.1686 19.728 64.1686 18.096C64.1686 16.592 64.6486 15.168 65.6086 13.824C66.6006 12.48 67.8966 11.568 69.4966 11.088C70.5846 10.768 72.2486 10.608 74.4886 10.608C76.6326 10.608 78.3926 10.768 79.7686 11.088C81.1446 11.408 82.2646 12.112 83.1286 13.2C85.0486 14.768 86.0086 17.152 86.0086 20.352L85.6246 20.832ZM80.3926 11.664C78.6646 11.28 76.6966 11.088 74.4886 11.088C67.9286 11.088 64.6486 13.424 64.6486 18.096C64.6486 19.536 65.0806 20.864 65.9446 22.08C66.8086 23.264 68.0726 24.144 69.7366 24.72C70.5046 25.072 71.7206 25.408 73.3846 25.728C74.7606 26.048 75.7526 26.368 76.3606 26.688C76.9686 27.008 77.2726 27.552 77.2726 28.32C77.2726 29.28 77.0646 29.984 76.6486 30.432C76.2326 30.848 75.6246 31.056 74.8246 31.056C73.9286 31.056 73.1286 30.816 72.4246 30.336C71.7206 29.856 71.3366 29.216 71.2726 28.416L65.7526 28.368C65.0166 28.368 64.4886 28.4 64.1686 28.464V28.704C64.1686 31.168 65.0966 33.136 66.9526 34.608C68.8086 36.048 71.2566 36.768 74.2966 36.768C77.2086 36.768 79.5926 36.176 81.4486 34.992C83.3046 33.776 84.2326 31.712 84.2326 28.8C84.2326 27.136 83.8486 25.808 83.0806 24.816C82.3126 23.824 81.2406 23.088 79.8646 22.608C78.5206 22.128 76.7126 21.712 74.4406 21.36C73.7046 21.104 73.1446 20.736 72.7606 20.256C72.3766 19.776 72.1846 19.264 72.1846 18.72C72.1846 18.176 72.3926 17.664 72.8086 17.184C73.2566 16.672 73.8646 16.416 74.6326 16.416C75.3686 16.416 76.0726 16.688 76.7446 17.232C77.4166 17.776 77.7526 18.368 77.7526 19.008C77.7526 19.2 77.7366 19.328 77.7046 19.392C78.6966 19.584 79.7846 19.68 80.9686 19.68C82.2806 19.68 83.4806 19.584 84.5686 19.392C84.5686 17.568 84.2326 15.984 83.5606 14.64C82.8886 13.264 81.8326 12.272 80.3926 11.664ZM86.978 13.92C87.458 12.896 88.402 12.128 89.81 11.616C91.25 11.104 92.866 10.848 94.658 10.848C94.914 10.88 95.506 10.896 96.434 10.896L97.586 10.848C98.802 10.848 99.986 11.04 101.138 11.424C102.29 11.808 103.25 12.368 104.018 13.104H103.97C104.066 13.232 104.21 13.408 104.402 13.632C104.594 13.824 104.77 13.968 104.93 14.064L104.882 14.016C105.746 14.592 106.322 15.744 106.61 17.472C106.93 19.2 107.09 21.344 107.09 23.904C107.09 26.176 106.946 28.528 106.658 30.96C106.37 33.392 105.97 34.896 105.458 35.472C104.786 36.432 103.874 37.088 102.722 37.44C101.57 37.792 100.226 37.968 98.69 37.968C97.058 37.968 95.73 37.92 94.706 37.824C93.714 37.728 92.722 37.456 91.73 37.008C90.77 36.592 89.842 35.92 88.946 34.992L88.514 34.56C87.522 33.632 86.85 32.448 86.498 31.008C86.146 29.536 85.97 27.824 85.97 25.872V24.144L86.018 22.512C86.018 22.128 86.002 21.76 85.97 21.408C85.938 21.056 85.922 20.736 85.922 20.448C85.922 19.072 85.954 18.032 86.018 17.328C86.082 16.624 86.322 15.776 86.738 14.784H86.69C86.722 14.592 86.754 14.4 86.786 14.208C86.85 14.016 86.914 13.888 86.978 13.824V13.872L86.93 14.016L86.978 13.92ZM86.45 22.416V25.968C86.45 28.784 86.914 31.12 87.842 32.976C88.802 34.8 90.514 35.92 92.978 36.336L95.234 36.384C96.322 36.448 97.17 36.48 97.778 36.48C99.282 36.48 100.562 36.32 101.618 36C102.674 35.68 103.506 35.088 104.114 34.224C104.658 33.68 105.01 32.464 105.17 30.576C105.362 28.688 105.522 26.144 105.65 22.944C105.65 22.656 105.618 21.632 105.554 19.872C105.49 18.08 105.298 16.656 104.978 15.6C104.69 14.512 104.258 13.792 103.682 13.44C102.242 12.032 100.146 11.328 97.394 11.328L95.57 11.376C95.154 11.376 94.834 11.36 94.61 11.328C92.978 11.328 91.474 11.568 90.098 12.048C88.722 12.528 87.826 13.216 87.41 14.112C87.058 15.36 86.802 16.464 86.642 17.424C86.482 18.384 86.402 19.376 86.402 20.4L86.45 22.416ZM96.29 18.576C98.53 18.576 99.65 20.24 99.65 23.568C99.65 24.944 99.586 26.048 99.458 26.88C99.33 27.68 98.994 28.336 98.45 28.848C97.906 29.36 97.074 29.616 95.954 29.616C94.994 29.616 94.21 29.408 93.602 28.992C92.994 28.576 92.69 27.904 92.69 26.976C92.722 26.56 92.738 25.824 92.738 24.768C92.738 23.296 92.77 22.16 92.834 21.36C92.93 20.528 93.122 20 93.41 19.776C94.05 18.976 95.01 18.576 96.29 18.576ZM94.658 21.12C94.402 21.28 94.242 22.016 94.178 23.328C94.146 24.608 94.13 26.16 94.13 27.984C94.13 28.496 94.29 28.816 94.61 28.944C94.93 29.072 95.378 29.136 95.954 29.136C97.906 29.136 98.882 28.464 98.882 27.12C99.074 25.392 99.17 24.144 99.17 23.376C99.17 22.32 99.042 21.504 98.786 20.928C98.562 20.352 98.018 20.064 97.154 20.064C96.962 20.064 96.61 20.096 96.098 20.16H96.146C95.538 20.32 95.074 20.608 94.754 21.024L94.658 21.12ZM116.222 13.2C117.79 12.24 119.486 11.76 121.31 11.76C122.334 11.76 123.326 11.936 124.286 12.288C125.246 12.64 125.966 13.184 126.446 13.92L127.022 14.352C127.854 14.992 128.27 17.68 128.27 22.416C128.27 23.664 128.238 25.536 128.174 28.032C128.11 30.464 128.078 32.24 128.078 33.36C128.078 34.64 128.11 35.952 128.174 37.296C127.022 37.456 125.678 37.536 124.142 37.536H121.262C121.23 37.312 121.214 36.992 121.214 36.576H120.302C120.206 35.584 120.158 33.648 120.158 30.768V28.368C120.158 26.512 120.126 25.072 120.062 24.048C119.998 23.024 119.822 22.16 119.534 21.456C119.278 21.36 118.942 21.312 118.526 21.312C117.566 21.312 116.894 21.632 116.51 22.272C116.158 22.912 115.982 24.144 115.982 25.968C115.982 26.832 116.014 28.032 116.078 29.568C116.142 31.168 116.174 32.336 116.174 33.072C116.174 34.448 116.11 35.648 115.982 36.672V37.2C114.862 37.488 113.934 37.632 113.198 37.632C112.75 37.632 112.398 37.616 112.142 37.584L110.99 37.536H110.462C109.982 37.536 109.518 37.568 109.07 37.632V36.576L108.11 36.672L108.062 27.6C107.998 23.568 107.966 20.512 107.966 18.432C107.966 16.736 107.998 14.448 108.062 11.568C108.83 11.664 109.55 11.712 110.222 11.712C110.478 11.712 110.894 11.664 111.47 11.568C112.078 11.472 112.894 11.424 113.918 11.424C114.782 11.424 115.23 11.616 115.262 12C115.262 12.192 115.406 12.368 115.694 12.528C116.014 12.656 116.19 12.8 116.222 12.96V13.2ZM114.206 11.856C113.31 11.856 112.302 11.936 111.182 12.096C110.67 12.16 110.35 12.192 110.222 12.192H109.646C109.23 12.192 108.862 12.16 108.542 12.096C108.478 13.088 108.446 14.544 108.446 16.464V19.392C108.446 21.344 108.478 24.176 108.542 27.888L108.59 36.144C108.974 36.112 109.486 36.096 110.126 36.096L112.43 36.144C113.102 36.144 113.806 36.048 114.542 35.856V35.664C114.67 34.608 114.734 33.424 114.734 32.112C114.734 31.28 114.702 30.064 114.638 28.464C114.574 26.864 114.542 25.648 114.542 24.816C114.542 22.896 114.782 21.6 115.262 20.928C115.742 20.224 116.51 19.872 117.566 19.872C118.718 19.872 119.454 20.224 119.774 20.928C120.126 21.6 120.334 22.368 120.398 23.232C120.462 24.064 120.51 24.64 120.542 24.96C120.606 25.44 120.638 26.208 120.638 27.264V28.944V32.496V34.032C120.638 34.992 120.67 35.68 120.734 36.096L123.518 36.144C124.67 36.144 125.742 36.064 126.734 35.904C126.67 34.688 126.638 33.68 126.638 32.88C126.638 31.76 126.67 29.952 126.734 27.456C126.798 24.832 126.83 22.912 126.83 21.696C126.83 19.488 126.75 17.712 126.59 16.368C126.43 14.992 126.142 14.112 125.726 13.728C124.638 12.736 123.15 12.24 121.262 12.24C120.238 12.24 119.326 12.4 118.526 12.72C117.726 13.04 116.974 13.408 116.27 13.824C115.566 14.208 115.102 14.464 114.878 14.592L114.926 13.488C114.926 12.4 114.686 11.856 114.206 11.856ZM148.064 22.704C148.064 24.336 148.16 25.632 148.352 26.592C148.544 27.552 148.96 28.096 149.6 28.224H149.552L149.984 28.272C150.784 28.272 151.376 28.112 151.76 27.792C152.144 27.472 152.384 27.056 152.48 26.544C152.608 26.032 152.72 25.312 152.816 24.384C152.88 23.424 152.992 22.544 153.152 21.744C153.824 21.84 154.48 21.888 155.12 21.888L157.376 21.84C158.592 21.84 159.568 21.936 160.304 22.128C160.368 22.288 160.4 22.432 160.4 22.56C160.432 22.656 160.48 22.784 160.544 22.944L161.264 23.088C161.712 24.336 161.936 25.616 161.936 26.928C161.936 29.168 161.408 31.136 160.352 32.832C159.328 34.528 157.888 35.824 156.032 36.72C154.176 37.648 152.064 38.112 149.696 38.112C148.032 38.112 146.432 37.792 144.896 37.152C143.36 36.512 142.064 35.6 141.008 34.416C139.984 33.2 139.392 31.792 139.232 30.192C139.072 26.992 138.992 23.552 138.992 19.872L139.04 12.528C139.072 12.048 139.088 11.296 139.088 10.272L139.04 9.744C139.04 8.656 139.248 7.68 139.664 6.816V6.864C140.4 4.816 141.488 3.28 142.928 2.256C144.4 1.2 146.384 0.671997 148.88 0.671997C151.088 0.671997 153.216 1.264 155.264 2.448C157.312 3.632 158.96 5.2 160.208 7.152C161.456 9.072 162.08 11.088 162.08 13.2C162.08 14.448 161.824 15.776 161.312 17.184C160.384 17.408 159.376 17.52 158.288 17.52C156.88 17.52 155.296 17.344 153.536 16.992L153.44 16.224C152.992 16.16 152.72 16.048 152.624 15.888C152.528 15.728 152.464 15.424 152.432 14.976C152.432 14.496 152.416 14.144 152.384 13.92C152.352 13.664 152.32 13.232 152.288 12.624C152.288 11.984 152.16 11.504 151.904 11.184C151.648 10.832 151.216 10.656 150.608 10.656C150.256 10.656 149.856 10.72 149.408 10.848C148.992 10.976 148.704 11.12 148.544 11.28C148.48 11.344 148.384 12.16 148.256 13.728C148.128 15.264 148.064 17.44 148.064 20.256V22.704ZM149.84 9.216C150.704 9.216 151.344 9.44 151.76 9.888C152.176 10.304 152.448 10.816 152.576 11.424C152.704 12.032 152.8 12.848 152.864 13.872C152.864 14.064 152.88 14.336 152.912 14.688C152.944 15.04 152.976 15.344 153.008 15.6C154.416 15.92 155.856 16.08 157.328 16.08C158.224 16.08 159.12 15.984 160.016 15.792C160.432 14.672 160.64 13.488 160.64 12.24C160.64 10.224 160.096 8.368 159.008 6.672C157.92 4.976 156.464 3.632 154.64 2.64C152.848 1.648 150.928 1.152 148.88 1.152C146.704 1.152 144.88 1.616 143.408 2.544C141.936 3.44 140.832 4.928 140.096 7.008C139.712 7.936 139.52 8.816 139.52 9.648C139.52 9.936 139.536 10.128 139.568 10.224C139.568 11.216 139.552 11.952 139.52 12.432L139.472 19.872C139.472 23.52 139.552 26.944 139.712 30.144C139.904 32.32 140.88 33.952 142.64 35.04C144.4 36.128 146.432 36.672 148.736 36.672C150.976 36.672 152.992 36.24 154.784 35.376C156.576 34.48 157.968 33.232 158.96 31.632C159.984 30 160.496 28.112 160.496 25.968C160.496 24.752 160.32 23.616 159.968 22.56C159.36 22.4 158.528 22.32 157.472 22.32L154.928 22.368C154.576 22.368 154.112 22.336 153.536 22.272C153.408 22.72 153.312 23.44 153.248 24.432C153.184 25.36 153.072 26.128 152.912 26.736C152.784 27.312 152.48 27.792 152 28.176C151.552 28.56 150.864 28.752 149.936 28.752C148.56 28.752 147.648 28.048 147.2 26.64C146.784 25.2 146.576 23.328 146.576 21.024V19.296C146.576 16.288 146.656 14.016 146.816 12.48C146.976 10.944 147.12 10.112 147.248 9.984C147.504 9.728 147.888 9.536 148.4 9.408C148.912 9.28 149.392 9.216 149.84 9.216ZM174.478 35.808C172.782 36.736 171.102 37.2 169.438 37.2C168.414 37.2 167.39 37.024 166.366 36.672C165.342 36.352 164.654 35.84 164.302 35.136C163.63 34.592 163.15 33.664 162.862 32.352C162.606 31.04 162.478 29.104 162.478 26.544C162.478 25.296 162.51 23.424 162.574 20.928C162.638 18.496 162.67 16.72 162.67 15.6C162.67 14.32 162.638 13.008 162.574 11.664C163.694 11.504 165.006 11.424 166.51 11.424H169.486C169.486 11.84 169.502 12.16 169.534 12.384H170.446C170.542 13.376 170.59 15.312 170.59 18.192V20.592C170.59 22.448 170.622 23.888 170.686 24.912C170.75 25.904 170.942 26.784 171.262 27.552C171.71 27.616 172.03 27.648 172.222 27.648C173.118 27.648 173.758 27.36 174.142 26.784C174.558 26.208 174.766 25.136 174.766 23.568C174.766 22.8 174.734 21.584 174.67 19.92C174.574 18.704 174.526 17.456 174.526 16.176C174.526 14.544 174.606 13.232 174.766 12.24V11.76C175.694 11.504 176.606 11.376 177.502 11.376L179.758 11.424H180.286C180.766 11.424 181.23 11.392 181.678 11.328V12.384L182.638 12.288L182.686 21.36C182.75 25.392 182.782 28.448 182.782 30.528C182.782 32.224 182.75 34.512 182.686 37.392C181.15 37.296 180.43 37.248 180.526 37.248C180.238 37.248 179.79 37.296 179.182 37.392C178.574 37.488 177.79 37.536 176.83 37.536C176.318 37.536 175.95 37.472 175.726 37.344C175.534 37.216 175.438 36.96 175.438 36.576C174.894 36.544 174.59 36.352 174.526 36L174.478 35.808ZM175.534 36.144C176.462 36.144 177.486 36.064 178.606 35.904C179.118 35.84 179.438 35.808 179.566 35.808C179.662 35.808 180.222 35.84 181.246 35.904C181.31 32.576 181.342 30.144 181.342 28.608C181.342 26.656 181.31 23.824 181.246 20.112L181.198 11.856C180.814 11.888 180.302 11.904 179.662 11.904L177.31 11.856C176.67 11.856 175.982 11.952 175.246 12.144V12.336C175.086 13.328 175.006 14.544 175.006 15.984C175.006 16.784 175.038 18.016 175.102 19.68C175.198 20.928 175.246 22.176 175.246 23.424C175.246 25.216 174.99 26.448 174.478 27.12C173.998 27.792 173.246 28.128 172.222 28.128C171.326 28.128 170.67 27.904 170.254 27.456C169.838 26.976 169.582 26.432 169.486 25.824C169.39 25.216 169.31 24.288 169.246 23.04C169.182 22.56 169.15 21.792 169.15 20.736V19.104V15.504V13.968C169.15 13.008 169.118 12.32 169.054 11.904L166.27 11.856C165.118 11.856 164.046 11.936 163.054 12.096C163.086 12.704 163.102 13.712 163.102 15.12C163.102 16.208 163.07 18.032 163.006 20.592C162.942 23.152 162.91 25.072 162.91 26.352C162.91 30.992 163.294 33.632 164.062 34.272C165.15 35.264 166.622 35.76 168.478 35.76C169.662 35.76 170.67 35.584 171.502 35.232C172.334 34.88 173.47 34.272 174.91 33.408L174.862 34.56C174.862 35.616 175.086 36.144 175.534 36.144ZM205.543 13.008C205.607 13.52 205.639 13.92 205.639 14.208V14.688C205.607 15.552 205.591 16.8 205.591 18.432L205.639 23.808C205.671 25.024 205.687 26.832 205.687 29.232C205.687 31.12 205.639 33.056 205.543 35.04V35.376C205.543 36.048 205.495 36.544 205.399 36.864C205.303 37.184 205.015 37.392 204.535 37.488H203.863C203.415 37.488 202.839 37.456 202.135 37.392L200.743 37.344C200.519 37.344 200.183 37.376 199.735 37.44L198.679 37.488C198.167 37.36 197.831 37.04 197.671 36.528C197.255 36.368 196.999 36.192 196.903 36C195.239 37.024 193.591 37.536 191.959 37.536C190.263 37.536 188.759 36.8 187.447 35.328C186.167 33.856 185.175 32.016 184.471 29.808C183.799 27.568 183.463 25.376 183.463 23.232C183.463 20.8 183.879 18.72 184.711 16.992C185.543 15.232 186.679 13.904 188.119 13.008C189.591 12.112 191.239 11.664 193.063 11.664C193.959 11.664 194.647 11.728 195.127 11.856C195.639 11.984 196.103 12.304 196.519 12.816C196.551 12.656 196.583 12.4 196.615 12.048C196.647 11.696 196.727 11.472 196.855 11.376C196.983 11.28 197.191 11.232 197.479 11.232C197.767 11.232 198.023 11.264 198.247 11.328C198.503 11.36 198.743 11.376 198.967 11.376H199.399C200.231 11.376 201.815 11.456 204.151 11.616L204.583 12.048L204.631 12.576H205.111L205.543 13.008ZM198.871 11.856L197.575 11.808C197.255 11.808 197.063 12.016 196.999 12.432C196.935 12.816 196.903 13.376 196.903 14.112V14.352C196.615 13.648 196.247 13.136 195.799 12.816C195.351 12.496 194.855 12.304 194.311 12.24C193.767 12.176 192.999 12.144 192.007 12.144C190.503 12.176 189.127 12.688 187.879 13.68C186.663 14.64 185.703 15.952 184.999 17.616C184.295 19.28 183.943 21.152 183.943 23.232C183.943 25.12 184.199 27.056 184.711 29.04C185.223 31.024 186.007 32.704 187.063 34.08C188.151 35.424 189.463 36.096 190.999 36.096C192.087 36.096 193.207 35.84 194.359 35.328C195.543 34.784 196.535 34.112 197.335 33.312C197.335 33.504 197.303 33.776 197.239 34.128C197.175 34.448 197.143 34.736 197.143 34.992C197.143 35.536 197.335 35.888 197.719 36.048C197.975 36.048 198.327 36.016 198.775 35.952L199.783 35.904L201.367 35.952C202.071 36.016 202.583 36.048 202.903 36.048H203.479C203.735 35.984 203.895 35.856 203.959 35.664C204.055 35.44 204.103 35.136 204.103 34.752V34.08C204.231 32.192 204.295 30.096 204.295 27.792L204.247 22.512C204.183 20.144 204.151 18.352 204.151 17.136C204.151 15.632 204.167 14.496 204.199 13.728V13.248C204.199 12.992 204.167 12.608 204.103 12.096C203.207 12.032 201.639 11.952 199.399 11.856H198.871ZM194.599 18.576C195.399 18.576 195.959 18.656 196.279 18.816C196.631 18.944 196.855 19.248 196.951 19.728C197.047 20.176 197.095 20.944 197.095 22.032V24.672C197.095 25.824 197.031 26.72 196.903 27.36C196.807 28 196.535 28.496 196.087 28.848C195.671 29.2 195.015 29.376 194.119 29.376C192.807 29.376 191.767 28.88 190.999 27.888C190.231 26.896 189.847 25.664 189.847 24.192C189.847 23.136 189.943 22.288 190.135 21.648C190.327 20.784 190.807 20.064 191.575 19.488C192.343 18.88 193.351 18.576 194.599 18.576ZM191.575 22.752C191.383 23.392 191.287 24.192 191.287 25.152C191.287 27.648 192.231 28.896 194.119 28.896C194.919 28.896 195.495 28.72 195.847 28.368C196.199 28.016 196.407 27.536 196.471 26.928C196.567 26.32 196.615 25.392 196.615 24.144V22.896L196.663 21.456C196.663 20.944 196.583 20.576 196.423 20.352C196.295 20.128 196.007 20.016 195.559 20.016C194.439 20.016 193.543 20.272 192.871 20.784C192.199 21.296 191.767 21.936 191.575 22.704V22.752ZM215.267 13.2C216.835 12.24 218.531 11.76 220.355 11.76C221.379 11.76 222.339 11.936 223.235 12.288C224.131 12.608 224.867 13.136 225.443 13.872L226.547 13.296C227.507 12.784 228.355 12.4 229.091 12.144C229.827 11.888 230.675 11.76 231.635 11.76C232.659 11.76 233.651 11.936 234.611 12.288C235.571 12.64 236.291 13.184 236.771 13.92L237.347 14.352C238.179 14.992 238.595 17.68 238.595 22.416C238.595 23.664 238.563 25.536 238.499 28.032C238.435 30.464 238.403 32.24 238.403 33.36C238.403 34.64 238.435 35.952 238.499 37.296C237.347 37.456 236.003 37.536 234.467 37.536H231.587C231.555 37.312 231.539 36.992 231.539 36.576H230.627C230.531 35.584 230.483 33.648 230.483 30.768V28.368C230.483 26.64 230.451 25.248 230.387 24.192C230.323 23.104 230.147 22.192 229.859 21.456C229.635 21.36 229.315 21.312 228.899 21.312C228.227 21.312 227.699 21.456 227.315 21.744V22.896C227.315 24.112 227.283 25.936 227.219 28.368C227.155 30.8 227.123 32.576 227.123 33.696C227.123 34.272 227.171 35.472 227.267 37.296C226.115 37.456 224.771 37.536 223.235 37.536H220.307C220.275 37.312 220.259 36.992 220.259 36.576H219.347C219.251 35.584 219.203 33.648 219.203 30.768V28.368C219.203 26.512 219.171 25.072 219.107 24.048C219.043 23.024 218.867 22.16 218.579 21.456C218.355 21.36 218.019 21.312 217.571 21.312C216.611 21.312 215.939 21.632 215.555 22.272C215.203 22.912 215.027 24.144 215.027 25.968C215.027 26.832 215.059 28.032 215.123 29.568C215.187 31.168 215.219 32.336 215.219 33.072C215.219 34.448 215.155 35.648 215.027 36.672V37.2C213.907 37.488 212.979 37.632 212.243 37.632C211.795 37.632 211.443 37.616 211.187 37.584L210.035 37.536H209.507C209.027 37.536 208.563 37.568 208.115 37.632V36.576L207.155 36.672L207.107 27.6C207.043 23.568 207.011 20.512 207.011 18.432C207.011 16.736 207.043 14.448 207.107 11.568C207.875 11.664 208.595 11.712 209.267 11.712C209.523 11.712 209.939 11.664 210.515 11.568C211.123 11.472 211.939 11.424 212.963 11.424C213.827 11.424 214.275 11.616 214.307 12C214.307 12.192 214.451 12.368 214.739 12.528C215.059 12.656 215.235 12.8 215.267 12.96V13.2ZM213.251 11.856C212.355 11.856 211.347 11.936 210.227 12.096C209.715 12.16 209.395 12.192 209.267 12.192H208.691C208.275 12.192 207.907 12.16 207.587 12.096C207.523 13.088 207.491 14.544 207.491 16.464V19.392C207.491 21.344 207.523 24.176 207.587 27.888L207.635 36.144C208.019 36.112 208.531 36.096 209.171 36.096L211.475 36.144C212.147 36.144 212.851 36.048 213.587 35.856V35.664C213.715 34.608 213.779 33.424 213.779 32.112C213.779 31.28 213.747 30.064 213.683 28.464C213.619 26.864 213.587 25.648 213.587 24.816C213.587 22.896 213.827 21.6 214.307 20.928C214.787 20.224 215.555 19.872 216.611 19.872C217.763 19.872 218.499 20.224 218.819 20.928C219.171 21.6 219.379 22.368 219.443 23.232C219.507 24.064 219.555 24.64 219.587 24.96C219.651 25.44 219.683 26.208 219.683 27.264V28.944V32.496V34.032C219.683 34.992 219.715 35.68 219.779 36.096L222.563 36.144C223.715 36.144 224.787 36.064 225.779 35.904C225.715 34.816 225.683 33.92 225.683 33.216C225.683 32.16 225.715 30.48 225.779 28.176C225.843 25.68 225.875 23.84 225.875 22.656V20.544C226.483 20.096 227.171 19.872 227.939 19.872C229.091 19.872 229.827 20.208 230.147 20.88C230.467 21.552 230.659 22.32 230.723 23.184C230.787 24.048 230.835 24.64 230.867 24.96C230.931 25.44 230.963 26.208 230.963 27.264V28.944V32.496V34.032C230.963 34.992 230.995 35.68 231.059 36.096L233.843 36.144C234.995 36.144 236.067 36.064 237.059 35.904C236.995 34.688 236.963 33.68 236.963 32.88C236.963 31.76 236.995 29.952 237.059 27.456C237.123 24.832 237.155 22.912 237.155 21.696C237.155 19.488 237.075 17.712 236.915 16.368C236.755 14.992 236.467 14.112 236.051 13.728C234.963 12.736 233.475 12.24 231.587 12.24C230.467 12.24 229.491 12.416 228.659 12.768C227.827 13.12 226.691 13.712 225.251 14.544C224.931 13.776 224.275 13.2 223.283 12.816C222.323 12.432 221.331 12.24 220.307 12.24C219.283 12.24 218.371 12.4 217.571 12.72C216.771 13.04 216.019 13.408 215.315 13.824C214.611 14.208 214.147 14.464 213.923 14.592L213.971 13.488C213.971 12.4 213.731 11.856 213.251 11.856ZM248.272 5.664C248.336 6.688 248.368 7.568 248.368 8.304C248.368 8.976 248.352 9.536 248.32 9.984L248.272 11.904C249.232 11.584 250.384 11.424 251.728 11.424C254.896 11.424 257.296 12.416 258.928 14.4C260.56 16.384 261.376 19.344 261.376 23.28C261.28 26.064 261.008 28.448 260.56 30.432C260.112 32.384 259.216 34.032 257.872 35.376C256.56 36.688 254.608 37.344 252.016 37.344C250.352 37.344 249.12 36.768 248.32 35.616V36.528C248.32 36.912 248.16 37.168 247.84 37.296C247.552 37.424 247.12 37.488 246.544 37.488C245.296 37.488 244.352 37.472 243.712 37.44L240.832 37.392L240.784 36.432H239.872C239.84 35.184 239.824 33.088 239.824 30.144C239.824 27.648 239.84 25.424 239.872 23.472C239.904 21.52 239.936 19.84 239.968 18.432C240.096 12.736 240.16 8.384 240.16 5.376V1.776C240.992 1.616 242.08 1.536 243.424 1.536C244.352 1.536 245.2 1.616 245.968 1.776C246.768 1.936 247.168 2.096 247.168 2.256V2.784C247.808 2.944 248.128 3.088 248.128 3.216V3.744L248.272 5.664ZM246.688 2.256C246.688 2.192 246.336 2.144 245.632 2.112C244.96 2.048 244.224 2.016 243.424 2.016C242.24 2.016 241.312 2.08 240.64 2.208V5.376C240.64 8.448 240.576 12.864 240.448 18.624C240.416 20 240.384 21.696 240.352 23.712C240.32 25.728 240.304 28.048 240.304 30.672C240.304 33.072 240.32 34.832 240.352 35.952C241.376 35.952 242.16 35.968 242.704 36L245.296 36.048C246.352 36.048 246.88 35.888 246.88 35.568C246.88 35.216 246.896 34.8 246.928 34.32C246.96 33.84 247.056 33.6 247.216 33.6C247.248 33.6 247.312 33.664 247.408 33.792C248.08 35.2 249.264 35.904 250.96 35.904C253.52 35.904 255.44 35.28 256.72 34.032C258 32.784 258.832 31.232 259.216 29.376C259.6 27.52 259.84 25.168 259.936 22.32C259.936 19.888 259.616 17.776 258.976 15.984C258.368 14.192 257.392 13.056 256.048 12.576C254.96 12.128 253.52 11.904 251.728 11.904C250.48 11.904 249.36 12.032 248.368 12.288C247.376 12.544 246.864 12.848 246.832 13.2C246.864 12.208 246.88 10.992 246.88 9.552V7.344C246.88 6.032 246.848 5.072 246.784 4.464L246.688 2.784V2.256ZM254.464 23.664C254.464 25.36 254.064 26.832 253.264 28.08C252.464 29.328 251.408 29.952 250.096 29.952C249.072 29.952 248.304 29.68 247.792 29.136C247.312 28.56 246.992 27.792 246.832 26.832C246.704 25.872 246.64 24.592 246.64 22.992C246.64 21.2 246.688 19.952 246.784 19.248C246.912 18.544 247.168 18.08 247.552 17.856C247.936 17.6 248.608 17.472 249.568 17.472C252.256 17.472 253.776 18.608 254.128 20.88C254.352 21.488 254.464 22.416 254.464 23.664ZM253.648 20.928C253.488 20.128 253.168 19.6 252.688 19.344C252.208 19.056 251.488 18.912 250.528 18.912C249.728 18.912 249.168 19.024 248.848 19.248C248.528 19.472 248.32 19.904 248.224 20.544C248.128 21.184 248.08 22.32 248.08 23.952V25.44C248.08 26.784 248.192 27.792 248.416 28.464C248.672 29.136 249.232 29.472 250.096 29.472C251.28 29.472 252.224 28.896 252.928 27.744C253.632 26.592 253.984 25.232 253.984 23.664C253.984 23.568 253.984 23.216 253.984 22.608C253.984 22 253.888 21.472 253.696 21.024L253.648 20.928ZM269.866 26.304C269.866 27.136 269.914 27.824 270.01 28.368C270.138 28.88 270.378 29.44 270.73 30.048V30.144C271.146 30.368 271.658 30.48 272.266 30.48C272.938 30.48 273.498 30.176 273.946 29.568C274.394 28.928 274.618 27.984 274.618 26.736V26.256C275.322 26.32 275.85 26.352 276.202 26.352L277.882 26.304C278.234 26.272 278.778 26.256 279.514 26.256C280.058 26.256 280.778 26.336 281.674 26.496L281.626 27.312L282.634 27.456C282.634 30.912 282.25 33.392 281.482 34.896C280.746 36.4 279.786 37.296 278.602 37.584C277.45 37.904 275.674 38.064 273.273 38.064C271.354 38.064 269.818 37.92 268.666 37.632C267.546 37.376 266.586 36.768 265.786 35.808C264.314 34.592 263.226 32.848 262.521 30.576C261.818 28.304 261.466 25.84 261.466 23.184C261.466 20.08 261.834 17.536 262.57 15.552C263.242 14.016 264.41 12.848 266.074 12.048C267.738 11.216 269.594 10.8 271.642 10.8C274.106 10.8 276.17 11.328 277.834 12.384C279.53 13.44 280.778 14.864 281.578 16.656C282.41 18.416 282.826 20.352 282.826 22.464C282.826 22.656 282.778 23.472 282.682 24.912C282.074 25.072 280.458 25.216 277.834 25.344C275.242 25.472 272.938 25.536 270.922 25.536C270.442 25.536 270.09 25.52 269.866 25.488V26.304ZM268.426 23.952C268.81 24.048 269.914 24.096 271.738 24.096C273.498 24.096 275.402 24.048 277.45 23.952C279.498 23.824 280.778 23.696 281.29 23.568C281.354 22.608 281.386 21.92 281.386 21.504C281.386 18.304 280.666 15.808 279.226 14.016C277.818 12.192 275.29 11.28 271.642 11.28C269.722 11.28 267.946 11.68 266.314 12.48C264.714 13.248 263.61 14.32 263.002 15.696C262.266 17.68 261.898 20.336 261.898 23.664C261.898 26.992 262.458 29.872 263.578 32.304C264.698 34.736 266.442 36.128 268.81 36.48L270.922 36.528C272.01 36.592 272.858 36.624 273.466 36.624C274.97 36.624 276.25 36.464 277.306 36.144C278.394 35.824 279.242 35.232 279.85 34.368C280.266 34.016 280.554 33.28 280.714 32.16C280.874 31.008 281.034 29.248 281.194 26.88C280.714 26.784 280.09 26.736 279.322 26.736L277.45 26.784C277.066 26.816 276.538 26.832 275.866 26.832C275.482 26.832 275.242 26.816 275.146 26.784V27.168C275.146 28.416 274.858 29.36 274.282 30C273.738 30.64 273.066 30.96 272.266 30.96C269.802 30.96 268.522 28.912 268.426 24.816V23.952ZM276.106 20.16C276.106 20.256 275.994 20.304 275.77 20.304C275.61 20.304 275.29 20.288 274.81 20.256C274.33 20.224 273.754 20.208 273.082 20.208L269.962 20.256C269.354 20.256 268.954 20.224 268.762 20.16C268.57 20.096 268.474 19.952 268.474 19.728C268.474 17.264 269.834 16.032 272.554 16.032C273.162 16.032 273.722 16.192 274.234 16.512C274.81 16.8 275.258 17.232 275.578 17.808C275.93 18.384 276.106 18.992 276.106 19.632V20.16ZM274.954 17.856C274.538 17.6 274.058 17.472 273.514 17.472C272.394 17.472 271.578 17.664 271.066 18.048C270.586 18.432 270.25 19.008 270.058 19.776L270.97 19.728H273.082L275.146 19.776L275.626 19.824V19.632C275.626 18.896 275.418 18.32 275.002 17.904L274.954 17.856Z" fill="#1E1E1E"/>
</svg>
